<?xml version="1.0" standalone="no"?>
<!DOCTYPE svg PUBLIC "-//W3C//DTD SVG 20010904//EN"
 "http://www.w3.org/TR/2001/REC-SVG-20010904/DTD/svg10.dtd">
<svg version="1.0" xmlns="http://www.w3.org/2000/svg"
 width="1024.000000pt" height="1024.000000pt" viewBox="0 0 1024.000000 1024.000000"
 preserveAspectRatio="xMidYMid meet">
<metadata>
Created by potrace 1.14, written by Peter Selinger 2001-2017
</metadata>
<g transform="translate(0.000000,1024.000000) scale(0.100000,-0.100000)"
fill="#000000" stroke="none">
<path d="M0 5120 l0 -5120 5120 0 5120 0 0 5120 0 5120 -5120 0 -5120 0 0
-5120z m9160 3779 c0 -6 -4 -7 -10 -4 -5 3 -10 11 -10 16 0 6 5 7 10 4 6 -3
10 -11 10 -16z m-283 -196 c4 -54 7 -62 26 -65 22 -3 22 -7 25 -200 l2 -198
-27 -2 c-16 0 -34 -1 -42 -1 -9 1 -12 -8 -7 -30 6 -32 6 -32 -8 -7 -8 14 -25
27 -38 30 -23 6 -23 6 -26 199 l-2 193 29 11 c25 9 29 17 35 61 3 28 6 76 7
106 l2 55 9 -45 c5 -25 12 -73 15 -107z m421 46 c-7 -5 -20 -8 -28 -8 -10 0
-11 2 -2 6 6 2 10 8 7 13 -3 4 4 6 16 3 16 -4 17 -8 7 -14z m221 -134 c14 -4
17 -13 15 -36 -2 -17 0 -38 6 -48 7 -13 10 -9 11 19 l2 35 6 -40 c11 -66 13
-267 3 -261 -13 8 -36 -20 -28 -33 10 -15 -5 -62 -17 -54 -6 3 -7 1 -3 -5 10
-16 37 -4 348 153 181 93 285 140 289 133 4 -7 9 -4 12 8 3 14 6 11 12 -13 4
-18 11 -30 16 -27 5 3 9 -125 9 -295 l0 -301 -25 0 c-22 0 -25 -4 -27 -42 l-1
-43 -4 44 c-4 39 -6 43 -28 38 l-24 -4 -3 126 c-3 117 -4 126 -23 129 -19 2
-20 9 -17 90 2 48 6 90 10 94 4 4 6 -33 4 -82 -3 -77 -1 -90 12 -90 14 0 16
13 11 98 -3 53 -8 109 -10 124 -2 15 0 28 4 30 5 2 11 14 15 28 3 14 3 19 0
12 -3 -6 -10 -10 -14 -7 -5 3 -99 -40 -210 -95 l-201 -100 3 -93 3 -92 29 3
29 4 -6 -123 c-4 -67 -7 -146 -7 -176 l0 -54 -27 15 c-16 8 -40 25 -55 38 -25
22 -26 30 -28 118 -3 169 -3 170 25 170 25 0 25 1 25 90 0 50 -3 90 -6 90 -4
0 -24 -10 -46 -22 l-41 -23 7 -132 7 -133 -31 0 c-20 0 -30 -5 -30 -15 0 -8
-4 -15 -10 -15 -5 0 -10 7 -10 15 0 9 -6 12 -17 8 -10 -4 -14 -2 -9 5 3 6 2
13 -4 17 -5 3 -10 46 -10 96 0 49 -2 89 -4 89 -2 0 -20 -7 -40 -15 -37 -16
-39 -15 -89 16 -28 17 -46 24 -38 15 13 -16 11 -18 -19 -20 -18 -2 -52 33 -44
45 3 5 -12 10 -33 10 -35 1 -36 2 -9 8 29 6 28 7 -42 54 -71 47 -72 47 -67 85
4 27 3 33 -4 22 -6 -8 -11 -50 -11 -92 0 -67 2 -78 18 -79 16 -1 16 -2 0 -6
-15 -4 -18 -17 -20 -66 l-2 -62 -3 62 c-3 53 -6 61 -21 57 -15 -5 -15 -4 1 6
13 9 17 25 16 78 -1 98 -12 167 -26 168 -7 1 -20 2 -28 3 -12 1 -15 22 -15
121 l0 121 30 5 c26 6 29 9 24 38 l-4 31 13 -29 14 -29 8 44 c6 36 8 40 15 24
5 -11 9 -32 9 -47 1 -21 7 -28 31 -33 l31 -7 -3 -121 -3 -122 -27 1 c-28 1
-28 1 -28 -62 0 -37 5 -66 12 -70 7 -4 8 -3 4 4 -10 16 9 15 26 -1 23 -23 62
-47 75 -47 10 0 13 38 14 163 1 208 13 254 23 90 6 -95 11 -119 20 -110 7 6
11 22 8 36 l-4 26 21 -25 c11 -14 21 -20 21 -15 1 6 5 1 10 -10 5 -11 9 -53 9
-92 1 -70 15 -99 24 -50 2 12 5 -5 6 -39 0 -33 4 -63 7 -67 4 -3 19 0 35 9
l29 15 0 249 0 250 25 0 c24 0 25 3 25 54 0 86 15 101 18 19 2 -59 6 -73 21
-78z m-868 -60 c8 -89 19 -115 49 -115 14 0 18 -13 24 -77 3 -42 6 -100 6
-129 0 -52 0 -53 -32 -56 -31 -3 -33 -6 -38 -48 l-5 -45 -8 35 c-6 26 -10 31
-17 21 -7 -12 -10 -9 -15 12 -5 17 -14 27 -26 27 -18 0 -19 9 -19 116 0 74 4
113 10 109 6 -3 10 -14 11 -23 0 -9 9 1 20 23 14 31 19 63 19 144 0 57 3 101
6 98 4 -4 10 -45 15 -92z m-141 -181 l25 0 3 -197 c2 -190 2 -197 -17 -197
-27 0 -29 -5 -38 -101 -8 -82 -8 -83 -14 -34 -6 50 -6 49 -7 -17 -2 -60 0 -67
16 -61 12 4 14 3 7 -5 -15 -16 -85 -44 -85 -33 0 5 11 12 25 15 25 6 25 7 24
119 l-2 112 -12 -85 -12 -85 -2 58 c-1 54 -2 57 -21 47 -20 -11 -20 -8 -20
220 l0 231 30 10 c17 6 30 16 30 22 0 7 5 30 12 52 l12 40 10 -55 c10 -50 14
-56 36 -56z m-452 -144 c26 -85 31 -95 55 -98 24 -3 25 -6 32 -95 4 -51 4
-146 1 -212 -3 -66 -5 -133 -6 -150 0 -25 -4 -30 -25 -31 -14 -1 -25 4 -25 11
0 17 -30 28 -31 12 -2 -37 -18 37 -18 88 -1 36 -5 55 -10 47 -12 -19 -21 71
-21 215 0 115 1 122 21 128 23 8 23 21 -6 139 -21 88 -1 54 33 -54z m233 -113
c8 -35 15 -43 35 -45 17 -1 24 4 25 16 1 9 5 -1 9 -23 4 -22 7 -109 6 -193
l-1 -154 -36 -12 c-19 -7 -40 -11 -47 -8 -8 2 -13 -10 -14 -35 l-1 -38 -4 37
c-4 31 -8 37 -31 40 l-27 3 -3 113 c-2 104 -4 112 -22 112 -11 0 -20 4 -20 10
0 6 3 9 8 9 26 -4 31 5 34 59 3 56 3 57 36 60 31 3 32 5 32 48 0 24 2 44 5 44
3 0 10 -19 16 -43z m719 -11 c0 -2 -8 -10 -17 -17 -16 -13 -17 -12 -4 4 13 16
21 21 21 13z m-1081 -258 c1 -57 1 -57 34 -60 l32 -3 3 -150 c2 -130 0 -151
-14 -162 -9 -6 -20 -27 -24 -45 l-8 -33 -1 38 -1 37 -50 0 -51 0 3 158 3 157
28 3 27 3 1 102 c1 84 3 94 10 57 4 -25 8 -71 8 -102z m-151 -86 l32 -3 0
-255 0 -254 -25 0 c-18 0 -25 -5 -25 -19 0 -11 -4 -23 -10 -26 -6 -3 -10 4
-10 17 0 22 -4 23 -42 20 -36 -4 -40 -2 -34 14 4 9 2 20 -3 23 -12 8 -13 35
-5 283 l7 196 33 7 c31 5 34 9 35 43 l2 37 6 -40 c5 -36 9 -40 39 -43z m2065
60 c3 7 6 2 7 -12 1 -22 3 -23 12 -8 23 33 38 -26 38 -148 l0 -114 -65 0 -65
0 0 119 0 119 26 6 c20 5 25 12 21 27 -4 16 -3 18 8 9 10 -8 14 -7 18 2z
m-3387 -90 c11 -15 54 -76 94 -137 98 -146 172 -246 178 -240 3 2 11 -3 18
-13 10 -13 12 -14 12 -2 -3 51 3 110 12 110 6 0 10 -27 10 -60 l0 -60 271 0
c171 0 269 -4 267 -10 -1 -5 -74 -93 -161 -195 l-158 -185 80 -133 c45 -72 85
-139 91 -147 8 -13 12 -13 32 -1 23 14 23 14 4 -8 -19 -21 -19 -22 26 -93 112
-181 254 -402 494 -773 423 -651 534 -824 540 -840 5 -13 -57 -15 -574 -15
l-580 0 -16 -74 c-38 -169 -166 -360 -316 -471 -111 -82 -286 -147 -441 -164
-55 -6 -412 -11 -869 -12 -749 -1 -775 0 -772 17 4 19 36 61 123 164 26 30
109 129 184 220 75 91 165 199 200 240 35 41 98 120 139 174 l75 100 -2 248
-2 248 72 0 72 0 3 -157 3 -157 79 98 c43 54 74 101 70 105 -37 33 -345 275
-504 396 -107 81 -205 157 -217 168 l-22 19 72 89 c130 160 118 133 117 266
-2 219 0 283 9 283 5 0 9 -82 10 -182 1 -100 4 -184 7 -187 2 -2 4 82 4 187 0
129 3 192 11 192 7 0 9 -57 7 -179 -2 -99 0 -177 5 -174 4 2 7 87 7 189 0 157
2 184 15 184 13 0 15 -25 12 -170 -1 -93 1 -166 5 -162 3 4 39 48 80 97 40 50
119 145 175 210 119 141 244 291 390 468 l104 127 89 0 c75 0 91 3 102 19 7
10 36 45 64 77 74 85 154 186 154 195 0 4 -15 22 -32 41 l-33 33 35 32 c42 39
49 40 76 5z m1789 -302 c3 -5 1 -10 -4 -10 -6 0 -11 5 -11 10 0 6 2 10 4 10 3
0 8 -4 11 -10z m30 -32 c3 -7 16 -76 30 -153 23 -125 58 -283 86 -387 l9 -36
73 -4 c39 -2 75 1 78 5 3 5 6 -6 7 -24 1 -31 0 -31 -14 -10 -13 18 -25 21 -78
21 -39 0 -68 5 -74 13 -20 24 -62 192 -107 427 -13 69 -27 133 -30 143 -4 10
-3 17 4 17 7 0 14 -6 16 -12z m-308 -70 c-3 -8 -6 -5 -6 6 -1 11 2 17 5 13 3
-3 4 -12 1 -19z m-384 -55 c-4 -19 -1 -23 19 -23 l24 0 -8 -86 c-7 -79 -17
-158 -38 -284 l-7 -45 -2 48 c0 29 -5 46 -11 42 -6 -4 -8 -56 -6 -138 l5 -132
-13 95 -13 95 -2 -140 c-1 -77 -6 -147 -11 -155 -7 -10 -9 14 -5 80 3 52 8
210 11 352 6 243 7 257 26 261 10 3 18 11 17 19 -1 7 0 29 1 48 2 32 3 33 10
10 4 -14 5 -35 3 -47z m-2066 44 c2 -2 -70 -91 -160 -198 -90 -107 -232 -277
-315 -379 l-151 -185 -1 -91 c0 -50 -3 -119 -6 -153 -6 -56 -9 -61 -30 -61
-16 0 -24 -6 -25 -17 -1 -17 -2 -17 -6 0 -2 9 -13 18 -24 18 -10 1 -25 2 -31
3 -8 1 -15 24 -18 64 l-5 63 -83 -104 c-46 -58 -94 -115 -108 -128 -13 -12
-24 -30 -23 -38 0 -9 56 -59 125 -111 69 -52 225 -172 347 -267 122 -95 223
-171 224 -169 2 1 23 -16 48 -39 47 -44 56 -73 30 -95 -10 -8 -16 -32 -16 -69
-2 -54 -2 -55 -9 -16 -6 34 -7 29 -7 -30 -1 -55 1 -63 8 -40 6 24 8 19 5 -23
-2 -29 -8 -58 -15 -65 -8 -8 -11 14 -13 89 l-2 99 -6 -75 -6 -75 -2 63 c-1 37
-6 61 -12 57 -5 -3 -6 -13 -3 -22 4 -11 3 -14 -5 -9 -8 5 -12 -2 -12 -21 0
-19 -3 -24 -9 -14 -6 9 -11 10 -15 2 -4 -6 0 -14 8 -17 9 -3 13 -11 10 -16 -4
-7 -10 -4 -16 6 -5 9 -13 16 -18 16 -5 0 -44 -42 -86 -92 -43 -51 -133 -157
-201 -234 -68 -78 -146 -169 -173 -203 -46 -58 -136 -163 -355 -420 l-91 -106
-254 -3 c-140 -1 -258 -6 -262 -10 -4 -4 -8 -37 -9 -74 l-2 -68 -59 0 -58 0 0
63 c0 34 -4 67 -8 74 -6 9 -73 12 -260 11 -230 -1 -255 -3 -276 -19 -22 -17
-47 -19 -311 -19 -158 -1 -290 2 -293 4 -3 3 19 43 48 88 29 46 120 193 203
328 153 249 359 576 629 998 82 128 151 238 154 246 3 8 -20 33 -59 64 -116
93 -192 189 -239 304 -163 402 26 856 436 1043 96 44 189 66 315 73 109 7
1551 6 1558 -1z m2450 -44 c-3 -10 -5 -4 -5 12 0 17 2 24 5 18 2 -7 2 -21 0
-30z m109 -81 c-17 -16 -18 -16 -5 5 7 12 15 20 18 17 3 -2 -3 -12 -13 -22z
m-32 -47 c-9 -14 -18 -25 -21 -25 -5 0 5 18 20 38 17 22 18 13 1 -13z m-53
-71 c-11 -15 -21 -32 -21 -39 0 -7 -7 -16 -16 -19 -18 -7 -21 -13 32 69 9 14
19 23 21 21 3 -3 -4 -17 -16 -32z m-573 -139 c2 14 7 9 22 -20 18 -35 20 -57
18 -195 -1 -121 -3 -140 -8 -85 -4 39 -7 58 -8 43 -1 -15 -8 -47 -16 -70 -8
-24 -17 -62 -20 -85 -5 -37 -4 -43 11 -44 29 -2 -28 -17 -62 -17 l-30 0 33 10
c32 11 32 12 31 72 l-1 61 -13 -45 -13 -45 -1 50 c-1 31 -4 45 -10 37 -14 -23
-18 13 -14 133 3 116 17 187 39 206 7 6 17 32 21 57 l8 47 6 -65 c3 -36 6 -56
7 -45z m512 67 c0 -5 -18 -18 -39 -30 -29 -17 -63 -57 -131 -157 -51 -74 -96
-132 -101 -129 -9 5 123 207 170 258 40 44 101 79 101 58z m647 -336 c6 -49
16 -55 56 -35 21 10 21 10 3 -5 -11 -9 -30 -16 -42 -16 -17 0 -24 9 -33 44
-15 59 -15 84 0 69 6 -6 14 -32 16 -57z m-3435 -153 c-2 -109 -7 -202 -12
-207 -11 -11 -14 245 -4 343 13 116 19 61 16 -136z m3637 149 c14 -26 29 -236
35 -472 6 -257 -8 -146 -24 180 -6 147 -16 254 -23 270 -8 17 -23 27 -47 31
l-35 6 42 2 c32 1 45 -4 52 -17z m175 -949 c4 -5 29 -13 54 -20 29 -8 34 -11
13 -8 -18 3 -46 5 -62 5 -19 0 -29 5 -29 15 0 16 12 20 24 8z m139 -40 c-7 -2
-19 -2 -25 0 -7 3 -2 5 12 5 14 0 19 -2 13 -5z m96 -19 c9 -8 -45 -2 -64 6
-14 7 -8 8 20 3 22 -3 42 -7 44 -9z m-3912 -546 c-2 -13 -4 -5 -4 17 -1 22 1
32 4 23 2 -10 2 -28 0 -40z m2652 -617 c11 -7 9 -10 -9 -16 -18 -6 -20 -9 -9
-17 12 -8 11 -9 -1 -5 -14 3 -21 23 -13 40 5 9 15 9 32 -2z m-3149 -111 c0 -5
-5 -10 -11 -10 -5 0 -7 5 -4 10 3 6 8 10 11 10 2 0 4 -4 4 -10z m-2988 -169
c14 -1 16 -10 13 -48 -2 -27 -4 -89 -4 -140 l-1 -92 -32 -3 c-27 -2 -34 -8
-39 -33 l-7 -30 -1 31 c-1 28 -3 30 -30 26 l-30 -4 4 53 c2 30 4 95 5 146 0
106 -3 104 122 94z m-144 -118 l-3 -118 -62 -3 -63 -4 0 121 0 121 65 0 66 0
-3 -117z m-1227 95 c0 -10 2 -10 6 0 2 6 20 12 39 12 l34 0 0 -103 c0 -57 2
-180 5 -273 l6 -169 -30 60 c-33 67 -38 70 -16 10 18 -50 19 -98 3 -93 -7 3
-15 15 -19 29 -6 24 -8 22 -22 -21 -3 -8 -6 -3 -6 13 -1 17 -6 27 -16 27 -13
0 -15 34 -15 244 0 134 3 251 6 260 7 19 24 21 25 4z m3659 -4 c0 -2 -9 -4
-21 -4 -11 0 -18 4 -14 10 5 8 35 3 35 -6z m-184 -35 c-8 -48 -33 -102 -45
-95 -4 3 -23 -10 -41 -29 -19 -19 -37 -35 -40 -35 -3 0 17 24 45 53 36 37 55
67 64 100 17 58 26 61 17 6z m-566 -3 c0 -3 -4 -8 -10 -11 -5 -3 -10 -1 -10 4
0 6 5 11 10 11 6 0 10 -2 10 -4z m164 -11 c-4 -8 -1 -15 5 -15 6 0 11 8 11 18
0 13 2 14 9 3 5 -7 13 -11 19 -7 6 4 10 -37 11 -116 1 -66 2 -124 3 -127 4
-40 -5 -62 -32 -76 -19 -10 -30 -23 -30 -38 -1 -19 -2 -20 -13 -6 -9 12 -18
14 -35 8 -19 -7 -22 -5 -22 17 0 15 11 35 28 49 15 13 21 25 15 25 -7 0 -13 6
-13 14 0 8 6 17 13 19 9 4 9 8 0 14 -18 13 -13 201 6 208 14 5 14 7 1 15 -12
8 -10 10 7 10 16 0 21 -4 17 -15z m1449 -22 c-4 -11 -3 -14 5 -9 8 4 12 0 12
-12 0 -10 -7 -19 -15 -19 -15 0 -21 37 -8 50 11 11 13 8 6 -10z m-336 -13 c3
-10 2 -11 -4 -4 -4 7 -17 14 -28 17 -16 5 -15 5 4 4 14 -1 26 -9 28 -17z
m-168 -7 c-2 -29 2 -59 8 -46 8 21 31 -9 38 -50 7 -35 -4 -67 -32 -95 -7 -7
-13 -25 -13 -40 0 -21 -2 -24 -10 -12 -8 13 -12 13 -27 -3 -17 -17 -17 -18 0
-11 29 11 19 -14 -13 -30 l-30 -14 1 56 c0 54 15 153 18 122 1 -8 9 0 18 19
13 26 14 37 5 52 -7 10 -8 19 -3 19 5 0 12 11 15 25 7 28 28 34 25 8z m59 10
c-10 -2 -26 -2 -35 0 -10 3 -2 5 17 5 19 0 27 -2 18 -5z m389 -35 c-3 -7 -5
-2 -5 12 0 14 2 19 5 13 2 -7 2 -19 0 -25z m28 12 c3 -5 1 -10 -4 -10 -6 0
-11 5 -11 10 0 6 2 10 4 10 3 0 8 -4 11 -10z m-55 -22 c0 -19 -2 -20 -10 -8
-8 12 -10 10 -10 -9 0 -20 -2 -21 -15 -11 -8 7 -15 17 -15 22 0 7 26 22 48 27
1 1 2 -9 2 -21z m-2506 -44 c13 -5 16 -25 16 -115 0 -106 -1 -109 -39 -183
-34 -67 -37 -76 -21 -76 45 0 123 -24 147 -44 25 -22 25 -23 9 -54 -19 -37
-18 -36 -71 -17 -89 32 -175 12 -175 -40 0 -33 28 -52 125 -85 49 -16 97 -38
108 -47 49 -45 60 -118 28 -189 -36 -79 -102 -110 -222 -101 -75 5 -159 36
-159 59 0 11 39 88 44 88 2 0 24 -11 47 -25 89 -50 189 -26 189 45 0 34 -23
52 -85 69 -58 16 -135 62 -159 94 -17 23 -21 43 -20 98 0 64 -1 69 -20 68 -70
-6 -66 -15 -66 151 0 142 1 150 19 150 11 0 22 3 25 8 2 4 24 6 49 4 l44 -4 7
-60 c3 -34 6 -92 6 -129 0 -38 2 -69 4 -69 3 0 16 4 30 10 l26 10 0 189 c0
189 0 190 23 194 36 7 74 7 91 1z m1396 -38 c0 -2 -7 -7 -16 -10 -8 -3 -12 -2
-9 4 6 10 25 14 25 6z m-3420 -98 c0 -45 -2 -79 -4 -77 -8 10 -14 159 -5 159
5 0 9 -37 9 -82z m3425 72 c-9 -14 -45 -32 -45 -23 0 7 24 22 48 32 2 0 0 -3
-3 -9z m-1866 -247 c-1 -195 -18 -369 -33 -333 -3 8 -7 133 -8 278 l-3 262 23
0 22 0 -1 -207z m50 -33 c-1 -129 -5 -219 -9 -200 -7 34 -7 34 -9 -12 0 -27
-5 -48 -11 -48 -6 0 -10 90 -10 249 0 244 0 250 20 248 20 -1 20 -7 19 -237z
m-499 200 c-22 -7 -21 -8 13 -9 l37 -1 0 -125 0 -125 -69 0 -70 0 -3 100 c-4
128 0 144 37 149 l30 4 -30 7 c-24 6 -19 8 25 8 42 0 49 -2 30 -8z m-145 -80
c-16 -4 -39 -8 -50 -8 -16 0 -15 2 5 8 14 4 36 8 50 8 22 0 22 -1 -5 -8z
m-103 -32 c-5 -7 -17 -35 -25 -63 -9 -27 -16 -43 -16 -34 -2 32 31 109 46 109
3 0 1 -6 -5 -12z m1883 -133 c-33 -28 -85 -49 -85 -35 0 9 45 43 70 53 36 13
43 5 15 -18z m3840 -2 c70 -23 148 -102 169 -173 34 -116 12 -214 -67 -295
-71 -71 -143 -99 -247 -93 -119 7 -199 58 -246 156 -23 47 -27 71 -28 137 0
124 46 200 156 256 79 40 162 44 263 12z m-5780 -70 c-9 -43 -23 -98 -30 -123
-7 -25 -17 -63 -20 -85 -4 -22 -10 -34 -12 -27 -5 14 67 325 74 318 3 -2 -3
-40 -12 -83z m1492 55 c-3 -7 -5 -2 -5 12 0 14 2 19 5 13 2 -7 2 -19 0 -25z
m3110 17 c72 -21 80 -35 52 -85 -16 -27 -28 -40 -39 -36 -8 2 -35 12 -60 21
-106 39 -207 -29 -137 -92 12 -11 58 -32 102 -47 119 -40 155 -77 155 -162 0
-63 -28 -108 -85 -138 -61 -32 -192 -30 -260 4 -27 14 -51 32 -52 40 -2 8 10
30 25 48 l28 34 48 -26 c61 -32 123 -34 160 -5 49 38 23 77 -70 104 -97 28
-155 64 -175 110 -10 22 -19 55 -19 73 0 42 33 107 65 128 68 45 171 56 262
29z m1895 4 c21 -5 49 -20 63 -32 l26 -22 -27 -38 c-17 -26 -31 -37 -42 -34
-10 3 -37 13 -62 22 -82 31 -176 3 -234 -68 -24 -30 -31 -49 -33 -95 -5 -68
15 -111 71 -156 30 -25 48 -31 99 -34 52 -3 70 1 112 22 l50 26 28 -31 c16
-17 27 -38 25 -47 -2 -9 -28 -30 -58 -47 -49 -27 -64 -30 -140 -30 -71 0 -94
4 -140 26 -104 49 -160 128 -168 240 -5 77 8 126 50 185 30 41 96 90 152 111
39 15 179 16 228 2z m-4766 -54 c15 -30 31 -55 35 -55 5 0 6 -6 3 -14 -3 -8
22 -72 56 -142 l62 -129 19 40 c10 22 52 111 93 198 l75 157 54 0 54 0 7 -122
c4 -68 11 -172 17 -233 15 -183 15 -182 -28 -194 -71 -20 -70 -23 -77 102 -4
61 -10 136 -14 166 l-7 53 -73 -160 c-76 -165 -81 -172 -140 -172 -23 0 -29
10 -147 267 -16 35 -31 61 -33 58 -3 -2 -11 -74 -18 -160 -8 -86 -17 -161 -20
-167 -6 -9 -90 -6 -98 3 -1 2 1 54 6 114 4 61 10 137 12 169 7 86 16 185 22
228 5 36 7 37 52 41 26 2 50 4 54 5 4 1 20 -23 34 -53z m1726 23 c23 -12 53
-39 66 -58 20 -29 23 -45 20 -95 -5 -74 -33 -117 -95 -142 -23 -10 -43 -22
-43 -28 0 -5 32 -52 70 -103 39 -52 70 -98 70 -103 0 -5 -28 -9 -63 -9 l-62 0
-75 107 c-41 59 -81 109 -87 111 -10 3 -13 -22 -13 -102 l0 -106 -55 0 -55 0
0 281 0 282 140 -6 c121 -4 145 -8 182 -29z m530 22 l128 0 0 -50 0 -50 -80 0
-80 0 0 -224 0 -224 -51 -4 c-28 -1 -53 -1 -55 1 -2 2 -4 105 -4 227 l0 223
-86 3 -87 3 1 48 c0 26 1 50 1 53 1 4 42 4 93 0 50 -3 149 -6 220 -6z m1253
-45 l0 -50 -85 0 -85 0 -3 -227 -2 -228 -55 0 -55 0 -2 228 -3 227 -87 3 -88
3 0 50 0 49 233 -2 232 -3 0 -50z m1603 -68 l3 -118 78 93 c132 156 121 148
196 148 36 0 65 -3 65 -7 0 -5 -52 -64 -115 -133 -63 -69 -115 -128 -115 -131
0 -3 55 -67 123 -143 67 -76 124 -143 126 -149 2 -7 -13 -8 -44 -4 -26 4 -60
7 -76 7 -23 0 -41 16 -105 93 -112 134 -101 124 -119 102 -10 -14 -14 -46 -15
-107 l0 -86 -51 -4 c-28 -1 -53 -1 -55 1 -7 8 -4 547 3 555 4 4 28 6 53 4 l45
-3 3 -118z m-4098 81 c7 -18 64 -139 127 -269 62 -129 113 -238 113 -242 0 -4
-27 -7 -60 -7 l-61 0 -26 60 -26 60 -134 0 -134 0 -26 -60 -26 -60 -58 0 -59
0 28 58 c16 31 41 88 56 125 15 37 51 116 79 175 29 59 61 126 70 150 l17 42
54 0 c51 0 54 -1 66 -32z m-1253 -50 c-3 -8 -6 -5 -6 6 -1 11 2 17 5 13 3 -3
4 -12 1 -19z m-1534 -365 c-2 -49 -5 -139 -6 -202 -2 -102 -4 -114 -20 -117
-10 -1 -21 5 -24 14 -6 13 -8 13 -14 -4 -7 -17 -8 -17 -8 -1 -1 11 -9 17 -26
17 l-25 0 0 103 c0 57 3 107 7 110 3 4 13 1 22 -6 14 -11 14 -10 2 5 -7 10
-17 15 -22 12 -5 -3 -9 0 -9 5 0 6 6 11 13 12 7 0 8 2 2 5 -6 2 -9 19 -7 38 4
33 3 34 -52 51 -67 21 -68 31 -2 13 35 -9 49 -9 54 -1 8 12 64 31 98 32 21 1
21 -2 17 -86z m125 79 c22 -2 22 -3 22 -157 l0 -155 -32 -1 c-18 -1 -25 -3
-15 -6 19 -5 20 -26 7 -108 l-7 -50 -3 60 c-3 71 -7 59 -19 -50 l-8 -80 -2
118 c0 72 -5 117 -11 117 -6 0 -8 -10 -5 -22 2 -13 1 -39 -4 -58 -8 -33 -9
-31 -10 23 -1 38 -5 57 -13 58 -10 0 -10 2 0 6 8 3 12 29 13 76 1 53 3 64 9
42 4 -16 5 -49 2 -72 -3 -29 -1 -43 7 -43 8 0 11 38 9 138 -3 124 -5 137 -20
134 -12 -2 -18 4 -18 17 0 20 1 20 98 13z m-361 -8 c-3 -3 -12 -4 -19 -1 -8 3
-5 6 6 6 11 1 17 -2 13 -5z m3 -137 c0 -12 -10 -42 -22 -65 -92 -172 -115
-213 -160 -281 -50 -74 -89 -124 -54 -68 9 15 14 32 11 37 -3 5 30 80 73 167
96 192 118 229 125 211 4 -9 6 -7 6 5 1 26 21 21 21 -6z m367 -269 c-2 -18 -4
-6 -4 27 0 33 2 48 4 33 2 -15 2 -42 0 -60z m2831 -170 l3 -138 -31 0 -30 0 0
141 0 140 28 -3 27 -3 3 -137z m766 132 c6 0 18 -4 26 -10 12 -7 12 -11 -3
-28 -14 -15 -27 -18 -61 -15 -33 4 -44 2 -49 -10 -7 -19 7 -31 58 -47 57 -18
75 -37 75 -80 0 -56 -27 -75 -105 -75 -48 0 -68 5 -84 19 -20 18 -20 20 -4 36
16 15 22 15 52 3 34 -15 81 -11 81 7 0 13 -42 40 -63 40 -27 0 -77 54 -77 83
0 31 34 74 63 80 12 3 35 3 51 1 16 -2 34 -4 40 -4z m666 -10 c23 -12 24 -19
7 -42 -11 -14 -19 -15 -56 -5 -51 14 -88 -2 -109 -47 -28 -57 32 -122 101
-109 18 4 27 12 27 25 0 10 -6 18 -12 17 -29 -4 -38 2 -38 26 0 24 3 25 54 25
l54 0 4 -51 c3 -58 -4 -73 -45 -89 -70 -26 -173 4 -201 59 -9 16 -16 50 -16
75 0 83 74 141 168 131 24 -3 52 -9 62 -15z m264 -2 c3 -13 6 -40 6 -61 l0
-38 63 3 62 3 3 58 c3 56 4 57 32 57 l30 0 0 -135 0 -135 -30 0 c-27 0 -30 3
-30 34 0 60 -6 66 -71 66 l-59 0 0 -50 0 -50 -35 0 -35 0 0 135 0 135 29 0
c21 0 30 -6 35 -22z m564 -10 c3 -25 0 -28 -27 -28 l-31 0 0 -105 0 -105 -35
0 -35 0 0 105 0 105 -45 0 c-40 0 -45 2 -45 23 0 13 3 27 7 31 4 4 52 5 107 4
l101 -3 3 -27z m-4454 -109 c-49 -67 -107 -148 -129 -179 -22 -32 -58 -84 -79
-115 -48 -69 -234 -260 -374 -382 l-103 -91 -67 4 c-201 13 -232 16 -226 26 4
7 52 8 140 3 l134 -7 112 100 c101 89 254 243 358 357 20 22 56 70 81 107 24
38 50 68 57 68 7 0 11 4 7 10 -10 16 159 233 174 224 1 -2 -37 -58 -85 -125z
m2506 54 l55 -76 3 77 c3 72 4 76 26 76 23 0 24 -4 29 -77 3 -43 5 -100 4
-128 -2 -50 -2 -50 -37 -53 -34 -2 -37 1 -85 75 l-50 77 -3 -77 -3 -77 -34 0
-35 0 0 123 c0 68 3 127 7 130 3 4 20 7 37 7 27 -1 38 -11 86 -77z m730 -53
l0 -130 -35 0 -35 0 0 130 0 130 35 0 35 0 0 -130z m-4586 -434 c-3 -21 -8
-35 -11 -32 -2 2 -1 20 3 40 3 21 8 35 11 32 2 -2 1 -20 -3 -40z m-94 -404 c0
-5 -9 -13 -21 -18 -19 -9 -21 -20 -25 -99 -6 -127 -24 -135 -24 -10 0 54 -2
96 -4 94 -2 -2 -6 -46 -9 -97 -6 -93 -16 -136 -18 -71 0 27 -2 30 -9 14 -5
-13 -9 10 -11 69 -2 48 -2 92 1 96 3 4 30 12 60 18 30 5 56 10 58 11 1 0 2 -3
2 -7z m-233 -59 c-3 -10 -5 -4 -5 12 0 17 2 24 5 18 2 -7 2 -21 0 -30z m83 5
c0 -30 -18 -76 -21 -53 -8 70 -7 85 7 85 9 0 14 -11 14 -32z m-40 12 c0 -5 -4
-10 -10 -10 -5 0 -10 5 -10 10 0 6 5 10 10 10 6 0 10 -4 10 -10z m27 -172 c-3
-8 -6 -5 -6 6 -1 11 2 17 5 13 3 -3 4 -12 1 -19z"/>
<path d="M10162 8425 c0 -16 2 -22 5 -12 2 9 2 23 0 30 -3 6 -5 -1 -5 -18z"/>
<path d="M9058 8336 c-4 -17 -1 -23 9 -19 14 6 18 43 4 43 -5 0 -11 -11 -13
-24z"/>
<path d="M9303 8290 c0 -30 2 -43 4 -27 2 15 2 39 0 55 -2 15 -4 2 -4 -28z"/>
<path d="M9446 8299 c-4 -9 -6 -51 -4 -95 2 -64 5 -75 14 -59 7 13 9 46 4 95
-3 44 -9 68 -14 59z"/>
<path d="M6412 7593 c4 -14 -26 -53 -41 -53 -8 0 -12 -3 -8 -6 5 -5 -48 -81
-73 -104 -3 -3 -23 -26 -44 -52 l-38 -48 196 0 c155 0 196 3 190 13 -30 50
-165 247 -174 252 -6 4 -9 3 -8 -2z"/>
<path d="M6860 6789 l-50 -60 0 -116 c0 -106 1 -115 18 -108 9 4 49 15 87 24
39 10 94 28 123 41 l52 23 -27 46 c-54 93 -135 211 -143 211 -5 0 -32 -27 -60
-61z"/>
<path d="M7044 6555 c-28 -12 -54 -30 -57 -39 -4 -9 -20 -22 -37 -27 -24 -9
-30 -17 -31 -42 -1 -28 -2 -29 -7 -9 -8 28 -24 30 -33 5 -5 -16 -7 -16 -18 5
-12 22 -30 25 -43 7 -4 -5 -8 -52 -8 -103 0 -91 0 -93 22 -86 16 5 13 -1 -13
-23 -35 -31 -67 -49 -132 -76 -35 -15 -37 -15 -27 2 5 10 39 34 75 52 l65 34
-73 5 -72 5 -1 75 c0 41 -1 102 -2 135 l-2 60 -21 -25 c-52 -65 -59 -79 -48
-86 7 -4 9 -3 5 4 -3 6 -2 13 3 16 5 4 12 2 15 -3 7 -11 -30 -45 -42 -37 -9 5
-166 -174 -230 -263 -26 -36 -30 -47 -19 -59 12 -15 260 -201 439 -330 133
-96 257 -238 302 -347 29 -67 57 -195 63 -281 l6 -84 478 0 c264 0 479 3 479
7 0 4 -42 72 -94 152 -51 80 -203 317 -338 526 -134 209 -282 440 -327 513
-46 73 -87 134 -90 136 -3 2 -35 -1 -70 -6 -42 -7 -67 -6 -73 0 -7 7 2 13 28
17 80 13 94 17 94 25 0 8 -86 138 -104 157 -8 8 -24 6 -62 -12z m-154 -281 c0
-8 -19 -13 -24 -6 -3 5 1 9 9 9 8 0 15 -2 15 -3z m-133 -109 c0 -9 -12 -18
-26 -21 -14 -3 -35 -7 -45 -9 -24 -5 -10 9 29 29 37 20 42 20 42 1z m23 -37
c0 6 4 12 8 12 5 0 9 -7 9 -15 0 -9 -10 -15 -26 -16 -25 -1 -25 -2 4 -9 l30
-8 -30 -2 c-16 -2 -39 -3 -50 -3 -11 0 -55 1 -97 2 -48 1 -78 5 -78 12 0 7 21
9 59 5 32 -3 62 -2 65 2 15 15 91 29 98 18 5 -7 8 -7 8 2z"/>
<path d="M5923 6560 l-271 -5 46 -33 c99 -70 283 -202 311 -223 24 -17 32 -19
51 -9 12 6 25 9 28 5 4 -4 12 28 18 72 l11 78 2 -77 1 -78 35 0 35 0 0 -59 c0
-106 11 -100 166 95 76 97 147 189 157 204 l18 29 -168 3 c-92 2 -290 1 -440
-2z m373 -65 c21 -5 42 -45 23 -45 -5 0 -9 -13 -9 -29 0 -20 -6 -30 -20 -34
-16 -4 -20 0 -20 18 0 13 -7 26 -16 29 -13 5 -15 2 -11 -14 3 -11 2 -22 -2
-25 -4 -2 -8 1 -8 8 -1 7 -4 33 -8 58 l-7 47 28 -5 c16 -2 39 -6 50 -8z"/>
<path d="M6280 6420 c0 -19 3 -21 12 -12 9 9 9 15 0 24 -9 9 -12 7 -12 -12z"/>
<path d="M5430 5591 c0 -11 5 -23 10 -26 6 -3 10 4 10 17 0 18 2 20 10 8 8
-13 10 -12 10 3 0 10 -8 17 -20 17 -13 0 -20 -7 -20 -19z"/>
<path d="M5533 5555 c0 -33 2 -45 4 -27 2 18 2 45 0 60 -2 15 -4 0 -4 -33z"/>
<path d="M5433 5400 c0 -30 2 -43 4 -27 2 15 2 39 0 55 -2 15 -4 2 -4 -28z"/>
<path d="M5503 5415 c0 -22 2 -30 4 -17 2 12 2 30 0 40 -3 9 -5 -1 -4 -23z"/>
<path d="M5532 5425 c0 -16 2 -22 5 -12 2 9 2 23 0 30 -3 6 -5 -1 -5 -18z"/>
<path d="M5705 5338 c-47 -61 -78 -109 -77 -122 1 -14 -1 -17 -7 -8 -9 16 -56
-41 -73 -88 -5 -16 -14 -28 -18 -25 -5 3 -25 -16 -45 -42 -32 -43 -34 -48 -18
-54 15 -7 15 -8 -4 -8 -44 -2 -23 -21 22 -21 42 0 45 2 46 28 l1 27 10 -28 10
-27 341 2 341 3 15 26 c13 24 13 31 -3 67 -10 22 -31 53 -47 68 l-29 28 -1
-65 -1 -64 -9 60 c-12 82 -17 89 -19 28 -2 -52 -4 -65 -11 -80 -1 -5 -6 30 -9
77 l-6 85 -3 -85 c-3 -88 -16 -82 -22 10 -2 34 -4 26 -9 -35 l-6 -80 -4 95
c-2 77 -4 87 -10 50 l-6 -45 -7 35 c-4 19 -8 52 -9 74 -2 27 -10 43 -25 54
l-23 14 -1 -98 c-1 -83 -3 -92 -9 -54 -5 25 -11 75 -15 113 -4 37 -10 67 -15
67 -4 0 -8 -45 -8 -100 -1 -157 -16 -167 -22 -13 -3 86 -9 136 -18 145 -14 14
-15 11 -12 -69 1 -34 -3 -53 -10 -53 -8 0 -11 23 -9 72 2 70 2 71 -34 105 -20
18 -40 33 -44 33 -5 -1 -44 -46 -88 -102z m392 -330 c-3 -8 -6 -5 -6 6 -1 11
2 17 5 13 3 -3 4 -12 1 -19z"/>
<path d="M5534 5341 c0 -11 4 -17 8 -15 4 3 8 12 8 20 0 8 -4 14 -8 14 -4 0
-8 -9 -8 -19z"/>
<path d="M5458 5297 c-13 -30 -10 -133 3 -120 5 5 9 38 7 74 -2 41 -6 57 -10
46z"/>
<path d="M5431 5284 c0 -11 3 -14 6 -6 3 7 2 16 -1 19 -3 4 -6 -2 -5 -13z"/>
<path d="M5432 5190 c0 -19 2 -27 5 -17 2 9 2 25 0 35 -3 9 -5 1 -5 -18z"/>
<path d="M4016 6554 c-37 -36 -20 -56 179 -205 83 -62 172 -130 200 -152 l49
-39 21 24 c40 49 247 324 267 356 l20 32 -360 0 c-314 0 -363 -2 -376 -16z"/>
<path d="M3432 5528 c-151 -230 -319 -492 -445 -693 -105 -169 -337 -553 -337
-559 0 -3 67 -6 148 -6 l148 0 142 188 c78 103 179 234 223 292 45 58 113 150
152 205 39 55 151 212 250 349 98 136 175 252 170 256 -22 22 -276 210 -283
210 -4 0 -80 -109 -168 -242z m-172 -612 c0 -55 -3 -111 -6 -123 -14 -50 -22
-17 -23 89 -1 62 -4 114 -6 117 -3 2 -5 -48 -5 -112 0 -96 -3 -117 -15 -117
-7 0 -19 -8 -24 -17 -9 -16 -10 -15 -11 8 0 14 -5 30 -11 36 -11 11 -15 169
-4 202 6 21 32 29 78 22 l27 -3 0 -102z"/>
<path d="M3944 5462 c-30 -39 -216 -302 -237 -334 -9 -15 -13 -29 -8 -33 5 -3
11 1 14 7 2 7 3 -9 1 -37 -3 -44 -2 -46 5 -15 8 35 8 35 11 -15 3 -48 4 -48
10 20 l6 70 2 -67 2 -68 438 0 437 1 -26 22 c-24 19 -243 188 -526 405 -52 39
-98 72 -101 71 -4 0 -16 -12 -28 -27z"/>
<path d="M3690 5037 c0 -26 4 -47 9 -47 8 0 3 79 -5 89 -2 2 -4 -17 -4 -42z"/>
<path d="M462 3660 c0 -14 2 -19 5 -12 2 6 2 18 0 25 -3 6 -5 1 -5 -13z"/>
<path d="M3532 4095 c0 -16 2 -22 5 -12 2 9 2 23 0 30 -3 6 -5 -1 -5 -18z"/>
<path d="M3490 4003 c0 -47 2 -84 4 -82 2 2 7 41 10 87 5 56 4 82 -3 82 -7 0
-11 -32 -11 -87z"/>
<path d="M3533 3975 c0 -33 2 -45 4 -27 2 18 2 45 0 60 -2 15 -4 0 -4 -33z"/>
<path d="M3525 3890 c-3 -5 -1 -10 4 -10 6 0 11 5 11 10 0 6 -2 10 -4 10 -3 0
-8 -4 -11 -10z"/>
<path d="M4415 4061 c-3 -5 -1 -12 5 -16 5 -3 10 1 10 9 0 18 -6 21 -15 7z"/>
<path d="M1924 3690 c0 -58 1 -81 3 -52 2 28 2 76 0 105 -2 28 -3 5 -3 -53z"/>
<path d="M6741 3529 c-84 -33 -125 -101 -119 -194 6 -102 71 -167 167 -168 61
-1 124 33 158 84 32 48 36 134 10 185 -40 78 -143 122 -216 93z"/>
<path d="M4380 3450 l0 -80 54 0 c68 0 100 12 122 45 13 20 15 33 8 58 -11 38
-52 56 -131 56 l-53 1 0 -80z"/>
<path d="M3766 3393 c-20 -49 -36 -91 -36 -95 0 -9 154 -11 162 -2 7 6 -74
184 -83 184 -3 0 -23 -39 -43 -87z"/>
<path d="M1058 3113 c7 -3 16 -2 19 1 4 3 -2 6 -13 5 -11 0 -14 -3 -6 -6z"/>
<path d="M1178 3223 c-2 -5 -1 -44 2 -88 l5 -80 5 83 c3 46 2 86 -2 88 -4 2
-8 1 -10 -3z"/>
<path d="M1210 3084 c0 -87 4 -133 10 -129 6 4 10 60 10 136 0 79 -4 129 -10
129 -6 0 -10 -52 -10 -136z"/>
</g>
</svg>
